<svg width="726" height="662" viewBox="0 0 726 662" fill="none" xmlns="http://www.w3.org/2000/svg">
<path d="M30.6667 350.337H597.333" stroke="#40D271" stroke-width="50" stroke-miterlimit="10" stroke-linecap="round" stroke-linejoin="round"/>
<path d="M597.333 272.667V511C596.333 606 570.333 630 471.333 630H156.668C56.001 630 30.6667 605.003 30.6667 505.67V272.667C30.6667 182.668 51.6667 153.668 130.667 149.002C138.667 148.668 147.334 148.335 156.668 148.335H471.333C572 148.335 597.333 173.335 597.333 272.667Z" stroke="#40D271" stroke-width="50" stroke-linecap="round" stroke-linejoin="round"/>
<path d="M697.333 154.333V387.333C697.333 477.333 676.333 506.333 597.333 511V272.667C597.333 173.333 572 148.333 471.333 148.333H156.668C147.334 148.333 138.667 148.667 130.667 149C131.667 54 157.668 30 256.668 30H571.333C672 30 697.333 55 697.333 154.333Z" stroke="#40D271" stroke-width="50" stroke-linecap="round" stroke-linejoin="round"/>
<path d="M139 523.67H196.332" stroke="#40D271" stroke-width="50" stroke-miterlimit="10" stroke-linecap="round" stroke-linejoin="round"/>
<path d="M267.662 523.67H382.33" stroke="#40D271" stroke-width="50" stroke-miterlimit="10" stroke-linecap="round" stroke-linejoin="round"/>
</svg>
