<svg width="666" height="666" viewBox="0 0 666 666" fill="none" xmlns="http://www.w3.org/2000/svg">
<g clip-path="url(#clip0_220_14)">
<path d="M333 666.333C148.905 666.333 -0.333321 517.095 -0.333321 333C-0.333321 148.905 148.905 -0.333252 333 -0.333252C517.095 -0.333252 666.333 148.905 666.333 333C666.333 517.095 517.095 666.333 333 666.333ZM333 633C498.685 633 633 498.685 633 333C633 167.315 498.685 33.0001 333 33.0001C167.315 33.0001 33 167.315 33 333C33 498.685 167.315 633 333 633ZM433 383C433 373.795 440.462 366.333 449.667 366.333C458.871 366.333 466.333 373.795 466.333 383C466.333 447.433 414.1 499.667 349.667 499.667H316.333C251.9 499.667 199.667 447.433 199.667 383C199.667 373.795 207.129 366.333 216.333 366.333C225.538 366.333 233 373.795 233 383C233 429.024 270.31 466.333 316.333 466.333H349.667C395.69 466.333 433 429.024 433 383ZM233 299.667C214.591 299.667 199.667 284.743 199.667 266.333C199.667 247.924 214.591 233 233 233C251.409 233 266.333 247.924 266.333 266.333C266.333 284.743 251.409 299.667 233 299.667ZM433 299.667C414.591 299.667 399.667 284.743 399.667 266.333C399.667 247.924 414.591 233 433 233C451.409 233 466.333 247.924 466.333 266.333C466.333 284.743 451.409 299.667 433 299.667Z" fill="#40D271"/>
</g>
<defs>
<clipPath id="clip0_220_14">
<rect width="666" height="666" fill="white"/>
</clipPath>
</defs>
</svg>
