<svg width="800" height="800" viewBox="0 0 800 800" fill="none" xmlns="http://www.w3.org/2000/svg">
<path d="M400 791.25C201.875 791.25 0.625 748.75 0.625 667.5C0.625 595 155.625 565 221.875 555.625H224.375C233.75 555.625 241.875 562.5 243.125 571.875C243.75 576.875 242.5 581.875 239.375 585.625C236.25 589.375 231.875 592.5 226.875 593.125C88.75 613.125 37.5 649.375 37.5 668.125C37.5 703.125 178.75 754.375 399.375 754.375C620 754.375 761.25 703.125 761.25 668.125C761.25 649.375 709.375 613.125 570 593.125C565 592.5 560.625 590 557.5 585.625C554.375 581.875 553.125 576.875 553.75 571.875C555 562.5 563.125 555.625 572.5 555.625H575C641.875 565 798.125 595 798.125 667.5C798.75 748.125 598.125 791.25 400 791.25ZM386.875 658.75C377.5 650 161.25 445.625 161.25 245C161.25 113.75 268.125 6.875 399.375 6.875C530.625 6.875 637.5 113.75 637.5 245C637.5 440 421.25 649.375 411.875 658.125L399.375 670.625L386.875 658.75ZM400 44.375C289.375 44.375 199.375 134.375 199.375 245C199.375 401.875 352.5 570 400 618.125C448.125 568.75 601.25 397.5 601.25 245C600.625 135 510.625 44.375 400 44.375ZM400 351.25C337.5 351.25 286.875 300.625 286.875 238.125C286.875 175.625 337.5 125 400 125C462.5 125 513.125 175.625 513.125 238.125C513.125 300.625 462.5 351.25 400 351.25ZM400 162.5C358.125 162.5 324.375 196.25 324.375 238.125C324.375 280 358.125 313.75 400 313.75C441.875 313.75 475.625 280 475.625 238.125C475.625 196.25 441.25 162.5 400 162.5Z" fill="#40D271"/>
</svg>
