<svg width="747" height="740" viewBox="0 0 747 740" fill="none" xmlns="http://www.w3.org/2000/svg">
<path d="M371 703.333C555.095 703.333 704.334 554.095 704.334 370C704.334 185.905 555.095 36.6666 371 36.6666C186.905 36.6666 37.667 185.905 37.667 370C37.667 554.095 186.905 703.333 371 703.333Z" stroke="#40D271" stroke-width="50"/>
<path d="M308.5 265.833C308.5 231.316 336.483 203.333 371 203.333C405.517 203.333 433.5 231.316 433.5 265.833C433.5 288.748 421.167 308.783 402.78 319.663C386.933 329.037 371 343.257 371 361.667V403.333" stroke="#40D271" stroke-width="50" stroke-linecap="round"/>
<path d="M371 536.667C389.41 536.667 404.334 521.743 404.334 503.333C404.334 484.924 389.41 470 371 470C352.591 470 337.667 484.924 337.667 503.333C337.667 521.743 352.591 536.667 371 536.667Z" fill="#40D271"/>
</svg>
